<svg xmlns="http://www.w3.org/2000/svg" viewBox="0 0 156.81 156.81"><defs><style>.cls-1{fill:#89568d;}.cls-2{fill:#fff;}.cls-3{fill:#b78dbb;}</style></defs><g id="Layer_2" data-name="Layer 2"><g id="Layer_1-2" data-name="Layer 1"><rect class="cls-1" width="156.81" height="156.81"/><path class="cls-2" d="M78.11,38.89l2.81-10.48a4,4,0,0,1,3.59-2.83h16a2.1,2.1,0,0,1,2.07,2.83L99.79,38.89a4,4,0,0,1-3.59,2.83h-16A2.1,2.1,0,0,1,78.11,38.89Z"/><path class="cls-2" d="M54.26,128.4,74.87,51.48a4,4,0,0,1,3.59-2.83H94.35a2.1,2.1,0,0,1,2.07,2.83L75.81,128.4a4,4,0,0,1-3.59,2.83H56.33A2.1,2.1,0,0,1,54.26,128.4Z"/><path class="cls-3" d="M105,54.24l1.72-6.41a2.42,2.42,0,0,1,2.19-1.73h9.8A1.28,1.28,0,0,1,120,47.83l-1.71,6.41a2.43,2.43,0,0,1-2.2,1.74h-9.79A1.29,1.29,0,0,1,105,54.24Z"/><path class="cls-3" d="M90.43,109l12.6-47a2.41,2.41,0,0,1,2.19-1.73h9.72a1.28,1.28,0,0,1,1.26,1.73l-12.6,47a2.41,2.41,0,0,1-2.19,1.73H91.69A1.28,1.28,0,0,1,90.43,109Z"/><path class="cls-3" d="M51.41,54.24l1.71-6.41a2.43,2.43,0,0,1,2.2-1.73h9.79a1.28,1.28,0,0,1,1.27,1.73l-1.72,6.41A2.42,2.42,0,0,1,62.47,56h-9.8A1.29,1.29,0,0,1,51.41,54.24Z"/><path class="cls-3" d="M36.82,109l12.61-47a2.41,2.41,0,0,1,2.19-1.73h9.71a1.28,1.28,0,0,1,1.27,1.73L50,109a2.42,2.42,0,0,1-2.2,1.73H38.09A1.28,1.28,0,0,1,36.82,109Z"/></g></g></svg>